<svg width="162" height="32" viewBox="0 0 162 32" fill="none" xmlns="http://www.w3.org/2000/svg">
<path d="M58.2065 3.56577V9.77408H51.9982V28.6861H45.5745V9.77408H39.3662V3.56577H58.2065Z" fill="white"/>
<path d="M64.4198 14.0804C64.7548 12.9081 65.4246 11.999 66.4295 11.3531C67.4343 10.7071 68.5587 10.3841 69.8028 10.3841V16.9872C68.4391 16.7719 67.195 17.0231 66.0706 17.7408C64.9701 18.4585 64.4198 19.6308 64.4198 21.2577V28.6861H58.4627V10.743H64.4198V14.0804Z" fill="white"/>
<path d="M84.2725 10.743H90.2296V28.6861H84.2725V27.0353C83.0523 28.4708 81.3537 29.1885 79.1766 29.1885C76.7842 29.1885 74.7746 28.2914 73.1478 26.4971C71.5448 24.6788 70.7434 22.418 70.7434 19.7146C70.7434 17.0111 71.5448 14.7623 73.1478 12.968C74.7746 11.1497 76.7842 10.2406 79.1766 10.2406C81.3537 10.2406 83.0523 10.9583 84.2725 12.3938V10.743ZM77.7771 22.5496C78.4709 23.2673 79.38 23.6262 80.5044 23.6262C81.6289 23.6262 82.538 23.2673 83.2318 22.5496C83.9256 21.8318 84.2725 20.8868 84.2725 19.7146C84.2725 18.5423 83.9256 17.5973 83.2318 16.8796C82.538 16.1618 81.6289 15.803 80.5044 15.803C79.38 15.803 78.4709 16.1618 77.7771 16.8796C77.0833 17.5973 76.7364 18.5423 76.7364 19.7146C76.7364 20.8868 77.0833 21.8318 77.7771 22.5496Z" fill="white"/>
<path d="M103.803 8.55395C101.746 8.41041 100.717 9.14009 100.717 10.743H103.803V16.4489H100.717V28.6861H94.7597V16.4489H92.4988V10.743H94.7597C94.7597 8.1592 95.5133 6.18546 97.0205 4.82179C98.5516 3.45811 100.812 2.86001 103.803 3.02748V8.55395Z" fill="white"/>
<path d="M132.491 3.56577V28.6861H129.189V9.05636L120.971 22.729H120.541L112.323 9.09225V28.6861H108.985V3.56577H112.754L120.756 16.8437L128.723 3.56577H132.491Z" fill="white"/>
<path d="M139.119 7.47737C138.521 7.47737 138.018 7.27401 137.611 6.8673C137.205 6.46059 137.001 5.97014 137.001 5.39596C137.001 4.82179 137.205 4.33134 137.611 3.92463C138.018 3.494 138.521 3.27868 139.119 3.27868C139.693 3.27868 140.183 3.494 140.59 3.92463C140.997 4.33134 141.2 4.82179 141.2 5.39596C141.2 5.97014 140.997 6.46059 140.59 6.8673C140.183 7.27401 139.693 7.47737 139.119 7.47737ZM137.54 28.6861V10.743H140.662V28.6861H137.54Z" fill="white"/>
<path d="M160.999 28.6861H157.339L152.315 21.9036L147.255 28.6861H143.595L150.485 19.4634L143.989 10.743H147.686L152.315 16.9872L156.944 10.743H160.605L154.145 19.4275L160.999 28.6861Z" fill="white"/>
<path d="M2 10.7433C2 7.02717 5.01253 4.01465 8.72867 4.01465H24.9896C25.9186 4.01465 26.6718 4.76778 26.6718 5.69681C26.6718 8.48392 24.4124 10.7433 21.6253 10.7433H2Z" fill="#6D24FF"/>
<path d="M26.6719 21.9574C26.6719 25.6735 23.6593 28.686 19.9432 28.686L3.68227 28.686C2.75324 28.686 2.00011 27.9329 2.00011 27.0039C2.00011 24.2168 4.2595 21.9574 7.0466 21.9574L26.6719 21.9574Z" fill="#6D24FF"/>
<path d="M24.9889 4.01465C22.2018 4.01465 19.9424 6.27404 19.9424 9.06115L19.9424 28.6864C23.6585 28.6864 26.671 25.6739 26.671 21.9578L26.671 5.69682C26.671 4.76778 25.9179 4.01465 24.9889 4.01465Z" fill="#B38DFF"/>
<path d="M8.72866 4.01465C5.01252 4.01465 2 7.02717 2 10.7433L2 27.0042C2 27.9333 2.75313 28.6864 3.68217 28.6864C6.46927 28.6864 8.72866 26.427 8.72866 23.6399L8.72866 4.01465Z" fill="#5414D3"/>
</svg>
