<svg width="28" height="28" viewBox="0 0 28 28" fill="none" xmlns="http://www.w3.org/2000/svg">
<path d="M13.9566 0.875C8.26914 0.875 3.41289 4.55 1.61914 9.625H26.3816C24.5441 4.55 19.6879 0.875 13.9566 0.875Z" fill="#F9F9F9"/>
<path d="M13.9566 27.125C19.6879 27.125 24.5441 23.45 26.3379 18.375H1.61914C3.41289 23.4938 8.26914 27.125 13.9566 27.125Z" fill="#ED4C5C"/>
<path d="M1.61875 9.625C1.1375 10.9812 0.875 12.4688 0.875 14C0.875 15.5312 1.1375 17.0188 1.61875 18.375H26.3813C26.8625 17.0188 27.125 15.5312 27.125 14C27.125 12.4688 26.8625 10.9812 26.3813 9.625H1.61875Z" fill="#428BC1"/>
</svg>
