<svg width="28" height="28" viewBox="0 0 28 28" fill="none" xmlns="http://www.w3.org/2000/svg">
<path d="M21 2.8875C18.9437 1.61875 16.5812 0.875 14 0.875V2.8875H21Z" fill="#ED4C5C"/>
<path d="M14 4.9002H23.45C22.7062 4.15645 21.875 3.45645 21 2.8877H14V4.9002Z" fill="white"/>
<path d="M14 6.9124H25.0688C24.5875 6.16865 24.0625 5.5124 23.4938 4.8999H14V6.9124Z" fill="#ED4C5C"/>
<path d="M14 8.9251H26.1187C25.8125 8.2251 25.4625 7.5251 25.0687 6.9126H14V8.9251Z" fill="white"/>
<path d="M14 10.9373H26.775C26.6 10.2373 26.3812 9.58105 26.1187 8.9248H14V10.9373Z" fill="#ED4C5C"/>
<path d="M14 12.9939H27.0813C27.0375 12.2939 26.9063 11.6377 26.775 10.9814H14V12.9939Z" fill="white"/>
<path d="M27.0813 12.9937H14V13.9999H0.875C0.875 14.3499 0.875 14.6562 0.91875 15.0062H27.0813C27.125 14.6562 27.125 14.3499 27.125 13.9999C27.125 13.6499 27.125 13.2999 27.0813 12.9937Z" fill="#ED4C5C"/>
<path d="M1.2252 17.0188H26.7752C26.9502 16.3626 27.0377 15.7063 27.0814 15.0063H0.918945C0.962695 15.6626 1.0502 16.3626 1.2252 17.0188Z" fill="white"/>
<path d="M1.88086 19.0311H26.1184C26.3809 18.3748 26.5996 17.7186 26.7746 17.0186H1.22461C1.39961 17.7186 1.61836 18.3748 1.88086 19.0311Z" fill="#ED4C5C"/>
<path d="M2.93086 21.0437H25.0684C25.4621 20.3875 25.8121 19.7312 26.1184 19.0312H1.88086C2.18711 19.7312 2.53711 20.3875 2.93086 21.0437Z" fill="white"/>
<path d="M4.50664 23.0564H23.4941C24.0629 22.4439 24.6316 21.7439 25.0691 21.0439H2.93164C3.36914 21.7877 3.93789 22.4439 4.50664 23.0564Z" fill="#ED4C5C"/>
<path d="M6.95586 25.0687H21.0434C21.9621 24.4999 22.7496 23.7999 23.4934 23.0562H4.50586C5.24961 23.8437 6.08086 24.4999 6.95586 25.0687Z" fill="white"/>
<path d="M13.9998 27.1251C16.5811 27.1251 18.9873 26.3813 21.0436 25.0688H6.95605C9.0123 26.3813 11.4186 27.1251 13.9998 27.1251Z" fill="#ED4C5C"/>
<path d="M7 2.8875C6.08125 3.45625 5.25 4.15625 4.50625 4.9C3.89375 5.5125 3.36875 6.2125 2.93125 6.9125C2.5375 7.56875 2.14375 8.225 1.88125 8.925C1.61875 9.58125 1.4 10.2375 1.225 10.9375C1.05 11.5938 0.9625 12.25 0.91875 12.95C0.875 13.3 0.875 13.65 0.875 14H14V0.875C11.4187 0.875 9.05625 1.61875 7 2.8875Z" fill="#428BC1"/>
<path d="M10.9375 1.3125L11.1562 1.96875H11.8125L11.2875 2.40625L11.4625 3.0625L10.9375 2.66875L10.4125 3.0625L10.5875 2.40625L10.0625 1.96875H10.7188L10.9375 1.3125Z" fill="white"/>
<path d="M12.6875 3.9375L12.9062 4.59375H13.5625L13.0375 5.03125L13.2125 5.6875L12.6875 5.29375L12.1625 5.6875L12.3375 5.03125L11.8125 4.59375H12.4688L12.6875 3.9375Z" fill="white"/>
<path d="M9.1875 3.9375L9.40625 4.59375H10.0625L9.5375 5.03125L9.7125 5.6875L9.1875 5.29375L8.6625 5.6875L8.8375 5.03125L8.3125 4.59375H8.96875L9.1875 3.9375Z" fill="white"/>
<path d="M10.9375 6.5625L11.1562 7.21875H11.8125L11.2875 7.65625L11.4625 8.3125L10.9375 7.91875L10.4125 8.3125L10.5875 7.65625L10.0625 7.21875H10.7188L10.9375 6.5625Z" fill="white"/>
<path d="M7.4375 6.5625L7.65625 7.21875H8.3125L7.7875 7.65625L7.9625 8.3125L7.4375 7.91875L6.9125 8.3125L7.0875 7.65625L6.5625 7.21875H7.21875L7.4375 6.5625Z" fill="white"/>
<path d="M3.9375 6.5625L4.15625 7.21875H4.8125L4.2875 7.65625L4.4625 8.3125L3.9375 7.91875L3.4125 8.3125L3.5875 7.65625L3.0625 7.21875H3.71875L3.9375 6.5625Z" fill="white"/>
<path d="M12.6875 9.1875L12.9062 9.84375H13.5625L13.0375 10.2812L13.2125 10.9375L12.6875 10.5438L12.1625 10.9375L12.3375 10.2812L11.8125 9.84375H12.4688L12.6875 9.1875Z" fill="white"/>
<path d="M9.1875 9.1875L9.40625 9.84375H10.0625L9.5375 10.2812L9.7125 10.9375L9.1875 10.5438L8.6625 10.9375L8.8375 10.2812L8.3125 9.84375H8.96875L9.1875 9.1875Z" fill="white"/>
<path d="M5.6875 9.1875L5.90625 9.84375H6.5625L6.0375 10.2812L6.2125 10.9375L5.6875 10.5438L5.1625 10.9375L5.3375 10.2812L4.8125 9.84375H5.46875L5.6875 9.1875Z" fill="white"/>
<path d="M10.9375 11.8125L11.1562 12.4688H11.8125L11.2875 12.9062L11.4625 13.5625L10.9375 13.1688L10.4125 13.5625L10.5875 12.9062L10.0625 12.4688H10.7188L10.9375 11.8125Z" fill="white"/>
<path d="M7.4375 11.8125L7.65625 12.4688H8.3125L7.7875 12.9062L7.9625 13.5625L7.4375 13.1688L6.9125 13.5625L7.0875 12.9062L6.5625 12.4688H7.21875L7.4375 11.8125Z" fill="white"/>
<path d="M3.9375 11.8125L4.15625 12.4688H4.8125L4.2875 12.9062L4.4625 13.5625L3.9375 13.1688L3.4125 13.5625L3.5875 12.9062L3.0625 12.4688H3.71875L3.9375 11.8125Z" fill="white"/>
<path d="M5.1627 5.6875L5.6877 5.29375L6.21269 5.6875L5.99394 5.03125L6.51894 4.59375H5.86269L5.6877 3.9375L5.46895 4.59375H4.85645L5.38145 4.9875L5.1627 5.6875Z" fill="white"/>
<path d="M1.6623 10.9375L2.1873 10.5438L2.7123 10.9375L2.49355 10.2812L3.01855 9.84375H2.40605L2.1873 9.1875L1.96855 9.84375H1.53105C1.53105 9.8875 1.4873 9.93125 1.4873 9.975L1.8373 10.2375L1.6623 10.9375Z" fill="white"/>
</svg>
