<svg width="156" height="32" viewBox="0 0 156 32" fill="none" xmlns="http://www.w3.org/2000/svg">
<path d="M59.1203 4.5045V10.0405H53.5843V26.9045H47.8563V10.0405H42.3203V4.5045H59.1203Z" fill="#4A5056"/>
<path d="M64.6608 13.8805C64.9595 12.8352 65.5568 12.0245 66.4528 11.4485C67.3488 10.8725 68.3515 10.5845 69.4608 10.5845V16.4725C68.2448 16.2805 67.1355 16.5045 66.1328 17.1445C65.1515 17.7845 64.6608 18.8298 64.6608 20.2805V26.9045H59.3488V10.9045H64.6608V13.8805Z" fill="#4A5056"/>
<path d="M82.3636 10.9045H87.6756V26.9045H82.3636V25.4325C81.2756 26.7125 79.7609 27.3525 77.8196 27.3525C75.6862 27.3525 73.8942 26.5525 72.4436 24.9525C71.0142 23.3312 70.2996 21.3152 70.2996 18.9045C70.2996 16.4938 71.0142 14.4885 72.4436 12.8885C73.8942 11.2672 75.6862 10.4565 77.8196 10.4565C79.7609 10.4565 81.2756 11.0965 82.3636 12.3765V10.9045ZM76.5716 21.4325C77.1902 22.0725 78.0009 22.3925 79.0036 22.3925C80.0062 22.3925 80.8169 22.0725 81.4356 21.4325C82.0542 20.7925 82.3636 19.9498 82.3636 18.9045C82.3636 17.8592 82.0542 17.0165 81.4356 16.3765C80.8169 15.7365 80.0062 15.4165 79.0036 15.4165C78.0009 15.4165 77.1902 15.7365 76.5716 16.3765C75.9529 17.0165 75.6436 17.8592 75.6436 18.9045C75.6436 19.9498 75.9529 20.7925 76.5716 21.4325Z" fill="#4A5056"/>
<path d="M99.7791 8.9525C97.9444 8.8245 97.0271 9.47517 97.0271 10.9045H99.7791V15.9925H97.0271V26.9045H91.7151V15.9925H89.6991V10.9045H91.7151C91.7151 8.6005 92.3871 6.8405 93.7311 5.6245C95.0964 4.4085 97.1124 3.87517 99.7791 4.0245V8.9525Z" fill="#4A5056"/>
<path d="M125.36 4.5045V26.9045H122.416V9.4005L115.088 21.5925H114.704L107.376 9.4325V26.9045H104.4V4.5045H107.76L114.896 16.3445L122 4.5045H125.36Z" fill="#4A5056"/>
<path d="M131.27 7.9925C130.737 7.9925 130.289 7.81117 129.926 7.4485C129.564 7.08583 129.382 6.6485 129.382 6.1365C129.382 5.6245 129.564 5.18717 129.926 4.8245C130.289 4.4405 130.737 4.2485 131.27 4.2485C131.782 4.2485 132.22 4.4405 132.582 4.8245C132.945 5.18717 133.126 5.6245 133.126 6.1365C133.126 6.6485 132.945 7.08583 132.582 7.4485C132.22 7.81117 131.782 7.9925 131.27 7.9925ZM129.862 26.9045V10.9045H132.646V26.9045H129.862Z" fill="#4A5056"/>
<path d="M150.782 26.9045H147.518L143.038 20.8565L138.526 26.9045H135.262L141.406 18.6805L135.614 10.9045H138.91L143.038 16.4725L147.166 10.9045H150.43L144.67 18.6485L150.782 26.9045Z" fill="#4A5056"/>
<path d="M6 7.9043C6 6.24744 7.34315 4.9043 9 4.9043H27C27.5523 4.9043 28 5.35201 28 5.9043V7.9043C28 9.56115 26.6569 10.9043 25 10.9043H6V7.9043Z" fill="#4A5056"/>
<path d="M28 23.9043C28 25.5612 26.6569 26.9043 25 26.9043L7 26.9043C6.44772 26.9043 6 26.4566 6 25.9043L6 23.9043C6 22.2474 7.34315 20.9043 9 20.9043L28 20.9043L28 23.9043Z" fill="#4A5056"/>
<path d="M25 4.9043C23.3431 4.9043 22 6.24744 22 7.9043L22 26.9043L25 26.9043C26.6569 26.9043 28 25.5612 28 23.9043L28 5.9043C28 5.35201 27.5523 4.9043 27 4.9043L25 4.9043Z" fill="#323A42"/>
<path d="M9 4.9043C7.34315 4.9043 6 6.24744 6 7.9043L6 25.9043C6 26.4566 6.44772 26.9043 7 26.9043L9 26.9043C10.6569 26.9043 12 25.5612 12 23.9043L12 4.9043L9 4.9043Z" fill="#323A42"/>
</svg>
